<svg xmlns="http://www.w3.org/2000/svg" viewBox="0 0 609 675" preserveAspectRatio="none">
<defs>
<radialGradient id="reach" cx="260" cy="0" r="1" gradientTransform="translate(260 0) scale(520 240) translate(-260 0)" gradientUnits="userSpaceOnUse"><stop offset="0.45" stop-color="white"/><stop offset="1" stop-color="white" stop-opacity="0"/></radialGradient><mask id="art"><rect width="609" height="675" fill="url(#reach)"/></mask>
</defs>
<g mask="url(#art)">
<g transform="rotate(-8 260 100)">
<rect x="-40" y="-10" width="680" height="270" fill="#e3e8f3"/>
<g stroke="#a4b2cc" stroke-width=".9"><path d="M-40 -10V260"/><path d="M-22 -10V260"/><path d="M-4 -10V260"/><path d="M14 -10V260"/><path d="M32 -10V260"/><path d="M50 -10V260"/><path d="M68 -10V260"/><path d="M86 -10V260"/><path d="M104 -10V260"/><path d="M122 -10V260"/><path d="M140 -10V260"/><path d="M158 -10V260"/><path d="M176 -10V260"/><path d="M194 -10V260"/><path d="M212 -10V260"/><path d="M230 -10V260"/><path d="M248 -10V260"/><path d="M266 -10V260"/><path d="M284 -10V260"/><path d="M302 -10V260"/><path d="M320 -10V260"/><path d="M338 -10V260"/><path d="M356 -10V260"/><path d="M374 -10V260"/><path d="M392 -10V260"/><path d="M410 -10V260"/><path d="M428 -10V260"/><path d="M446 -10V260"/><path d="M464 -10V260"/><path d="M482 -10V260"/><path d="M500 -10V260"/><path d="M518 -10V260"/><path d="M536 -10V260"/><path d="M554 -10V260"/><path d="M572 -10V260"/><path d="M590 -10V260"/><path d="M608 -10V260"/><path d="M626 -10V260"/><path d="M-40 -10H640"/><path d="M-40 8H640"/><path d="M-40 26H640"/><path d="M-40 44H640"/><path d="M-40 62H640"/><path d="M-40 80H640"/><path d="M-40 98H640"/><path d="M-40 116H640"/><path d="M-40 134H640"/><path d="M-40 152H640"/><path d="M-40 170H640"/><path d="M-40 188H640"/><path d="M-40 206H640"/><path d="M-40 224H640"/><path d="M-40 242H640"/></g>
<g stroke="#f6f8fb" stroke-width="20" stroke-linecap="square">
<path d="M90 50L180 160M180 50L90 160"/><path d="M280 60H400M280 115H400"/>
</g>
</g>
<path d="M470 70L515 115M515 70L470 115" stroke="#d9dfeb" stroke-width="7"/>
</g>
</svg>
