<svg xmlns="http://www.w3.org/2000/svg" width="45.07pt" height="72.71pt" viewBox="0 0 189 305" preserveAspectRatio="none">
<circle cx="13.8" cy="13.8" r="14" fill="#c6d3ad"/>
<circle cx="52.6" cy="13.8" r="14" fill="#c6d3ad"/>
<circle cx="91.4" cy="13.8" r="14" fill="#c6d3ad"/>
<circle cx="13.8" cy="52.6" r="14" fill="#c6d3ad"/>
<circle cx="52.6" cy="52.6" r="14" fill="#c6d3ad"/>
<circle cx="91.4" cy="52.6" r="14" fill="#c6d3ad"/>
<circle cx="130.2" cy="52.6" r="14" fill="#9cb6ef"/>
<circle cx="13.8" cy="91.4" r="14" fill="#c6d3ad"/>
<circle cx="52.6" cy="91.4" r="14" fill="#c6d3ad"/>
<circle cx="91.4" cy="91.4" r="14" fill="#9cb6ef"/>
<circle cx="130.2" cy="91.4" r="14" fill="#9cb6ef"/>
<circle cx="169.0" cy="91.4" r="14" fill="#e7efde"/>
<circle cx="13.8" cy="130.2" r="14" fill="#c6d3ad"/>
<circle cx="52.6" cy="130.2" r="14" fill="#9cb6ef"/>
<circle cx="91.4" cy="130.2" r="14" fill="#9cb6ef"/>
<circle cx="130.2" cy="130.2" r="14" fill="#e7efde"/>
<circle cx="13.8" cy="169.0" r="14" fill="#9cb6ef"/>
<circle cx="52.6" cy="169.0" r="14" fill="#9cb6ef"/>
<circle cx="91.4" cy="169.0" r="14" fill="#e7efde"/>
<circle cx="130.2" cy="169.0" r="14" fill="#e7efde"/>
<circle cx="169.0" cy="169.0" r="14" fill="#deefff"/>
<circle cx="13.8" cy="207.8" r="14" fill="#9cb6ef"/>
<circle cx="52.6" cy="207.8" r="14" fill="#e7efde"/>
<circle cx="91.4" cy="207.8" r="14" fill="#e7efde"/>
<circle cx="130.2" cy="207.8" r="14" fill="#deefff"/>
<circle cx="13.8" cy="246.6" r="14" fill="#e7efde"/>
<circle cx="52.6" cy="246.6" r="14" fill="#e7efde"/>
<circle cx="91.4" cy="246.6" r="14" fill="#deefff"/>
<circle cx="130.2" cy="246.6" r="14" fill="#deefff"/>
<circle cx="52.6" cy="285.4" r="14" fill="#deefff"/>
<circle cx="130.2" cy="285.4" r="14" fill="#deefff"/>
</svg>
