<svg xmlns="http://www.w3.org/2000/svg" viewBox="0 0 16 16">
  <defs>
    <linearGradient id="g0" x2="0" y2="1"><stop offset="0" stop-color="#ffffff"/><stop offset="1" stop-color="#e3e9f0"/></linearGradient>
    <linearGradient id="g1" x2="0" y2="1"><stop offset="0" stop-color="#f1f4f8"/><stop offset="1" stop-color="#c9d3df"/></linearGradient>
    <linearGradient id="g2" x2="0" y2="1"><stop offset="0" stop-color="#79c2ff"/><stop offset="1" stop-color="#1f7cf0"/></linearGradient>
  </defs>
  <path d="M1.5 2.25L7.5 2.25L10.5 5.25L10.5 15.25L1.5 15.25Z" fill="#000000" fill-opacity="0.16"/>
  <path d="M1.5 1.5L7.5 1.5L10.5 4.5L10.5 14.5L1.5 14.5Z" fill="url(#g0)" stroke="#98a4b3" stroke-width="0.8" stroke-linecap="round" stroke-linejoin="round"/>
  <path d="M7.5 2.25L7.5 5.25L10.5 5.25Z" fill="#000000" fill-opacity="0.16"/>
  <path d="M7.5 1.5L7.5 4.5L10.5 4.5Z" fill="url(#g1)" stroke="#98a4b3" stroke-width="0.8" stroke-linecap="round" stroke-linejoin="round"/>
  <path class="accent" d="M3 6H7M3 8H6.5" fill="none" stroke="#8cc0f5" stroke-width="1" stroke-linecap="round" stroke-linejoin="round"/>
  <path d="M11.5 7.25C11.5 7.25 8.5 10.75 8.5 12.75A3 3 0 0 0 14.5 12.75C14.5 10.75 11.5 7.25 11.5 7.25Z" fill="#000000" fill-opacity="0.16"/>
  <path class="accent" d="M11.5 6.5C11.5 6.5 8.5 10 8.5 12A3 3 0 0 0 14.5 12C14.5 10 11.5 6.5 11.5 6.5Z" fill="url(#g2)" stroke="#1560c4" stroke-width="0.8" stroke-linecap="round" stroke-linejoin="round"/>
  <path d="M10 11.5A1.6 1.6 0 0 0 10.6 13" fill="none" stroke="#ffffff" stroke-width="1" stroke-linecap="round" stroke-linejoin="round" stroke-opacity="0.85"/>
</svg>
